<mxfile host="app.diagrams.net" modified="2024-03-20T16:29:24.830Z" agent="Mozilla/5.0 (Windows NT 10.0; Win64; x64) AppleWebKit/537.36 (KHTML, like Gecko) Chrome/120.0.0.0 Safari/537.36" etag="Loh8rhiEgRwqzwyteVkt" version="24.0.7" type="github">
  <diagram name="Page-1" id="IYuXv-Pi5cnl-ZU0ZB3P">
    <mxGraphModel dx="1434" dy="750" grid="1" gridSize="10" guides="1" tooltips="1" connect="1" arrows="1" fold="1" page="1" pageScale="1" pageWidth="827" pageHeight="1169" math="0" shadow="0">
      <root>
        <mxCell id="0" />
        <mxCell id="1" parent="0" />
        <mxCell id="sqhxOelxg33xezJtGO6u-1" value="" style="endArrow=none;html=1;rounded=0;" edge="1" parent="1">
          <mxGeometry width="50" height="50" relative="1" as="geometry">
            <mxPoint x="390" y="312" as="sourcePoint" />
            <mxPoint x="390" y="170" as="targetPoint" />
          </mxGeometry>
        </mxCell>
        <mxCell id="sqhxOelxg33xezJtGO6u-2" value="" style="endArrow=none;html=1;rounded=0;" edge="1" parent="1">
          <mxGeometry width="50" height="50" relative="1" as="geometry">
            <mxPoint x="90" y="550" as="sourcePoint" />
            <mxPoint x="390" y="310" as="targetPoint" />
          </mxGeometry>
        </mxCell>
        <mxCell id="sqhxOelxg33xezJtGO6u-3" value="" style="endArrow=none;html=1;rounded=0;" edge="1" parent="1">
          <mxGeometry width="50" height="50" relative="1" as="geometry">
            <mxPoint x="710" y="560" as="sourcePoint" />
            <mxPoint x="390" y="310" as="targetPoint" />
          </mxGeometry>
        </mxCell>
        <mxCell id="sqhxOelxg33xezJtGO6u-4" value="" style="verticalLabelPosition=bottom;sketch=0;aspect=fixed;html=1;verticalAlign=top;strokeColor=none;align=center;outlineConnect=0;shape=mxgraph.citrix.database;" vertex="1" parent="1">
          <mxGeometry x="580" y="120" width="42.5" height="50" as="geometry" />
        </mxCell>
        <mxCell id="sqhxOelxg33xezJtGO6u-5" value="" style="verticalLabelPosition=bottom;sketch=0;aspect=fixed;html=1;verticalAlign=top;strokeColor=none;align=center;outlineConnect=0;shape=mxgraph.citrix.database;" vertex="1" parent="1">
          <mxGeometry x="170" y="130" width="42.5" height="50" as="geometry" />
        </mxCell>
        <mxCell id="sqhxOelxg33xezJtGO6u-6" value="" style="verticalLabelPosition=bottom;sketch=0;aspect=fixed;html=1;verticalAlign=top;strokeColor=none;align=center;outlineConnect=0;shape=mxgraph.citrix.database;" vertex="1" parent="1">
          <mxGeometry x="370" y="430" width="42.5" height="50" as="geometry" />
        </mxCell>
        <mxCell id="sqhxOelxg33xezJtGO6u-7" value="Gestion de la Collecte" style="text;html=1;align=center;verticalAlign=middle;whiteSpace=wrap;rounded=0;fillColor=#dae8fc;strokeColor=#6c8ebf;" vertex="1" parent="1">
          <mxGeometry x="540" y="20" width="160" height="30" as="geometry" />
        </mxCell>
        <mxCell id="sqhxOelxg33xezJtGO6u-8" value="Collecte" style="text;html=1;align=center;verticalAlign=middle;whiteSpace=wrap;rounded=0;fillColor=#d5e8d4;strokeColor=#82b366;" vertex="1" parent="1">
          <mxGeometry x="110" y="20" width="160" height="30" as="geometry" />
        </mxCell>
        <mxCell id="sqhxOelxg33xezJtGO6u-9" value="Post Collecte" style="text;html=1;align=center;verticalAlign=middle;whiteSpace=wrap;rounded=0;fillColor=#fff2cc;strokeColor=#d6b656;" vertex="1" parent="1">
          <mxGeometry x="311.25" y="610" width="160" height="30" as="geometry" />
        </mxCell>
        <mxCell id="sqhxOelxg33xezJtGO6u-10" value="SystÃ¨me de Collecte" style="ellipse;whiteSpace=wrap;html=1;" vertex="1" parent="1">
          <mxGeometry x="106.88" y="240" width="168.75" height="80" as="geometry" />
        </mxCell>
        <mxCell id="sqhxOelxg33xezJtGO6u-11" value="Omer Gestion" style="ellipse;whiteSpace=wrap;html=1;" vertex="1" parent="1">
          <mxGeometry x="540" y="230" width="120" height="80" as="geometry" />
        </mxCell>
        <mxCell id="sqhxOelxg33xezJtGO6u-12" value="Odic" style="ellipse;whiteSpace=wrap;html=1;" vertex="1" parent="1">
          <mxGeometry x="331.25" y="504.5" width="120" height="80" as="geometry" />
        </mxCell>
        <mxCell id="sqhxOelxg33xezJtGO6u-13" value="" style="endArrow=none;html=1;rounded=0;" edge="1" parent="1" source="sqhxOelxg33xezJtGO6u-12" target="sqhxOelxg33xezJtGO6u-6">
          <mxGeometry width="50" height="50" relative="1" as="geometry">
            <mxPoint x="230" y="540" as="sourcePoint" />
            <mxPoint x="280" y="490" as="targetPoint" />
          </mxGeometry>
        </mxCell>
        <mxCell id="sqhxOelxg33xezJtGO6u-14" value="" style="endArrow=none;html=1;rounded=0;exitX=0.5;exitY=0;exitDx=0;exitDy=0;" edge="1" parent="1" source="sqhxOelxg33xezJtGO6u-10" target="sqhxOelxg33xezJtGO6u-5">
          <mxGeometry width="50" height="50" relative="1" as="geometry">
            <mxPoint x="260" y="210" as="sourcePoint" />
            <mxPoint x="310" y="160" as="targetPoint" />
          </mxGeometry>
        </mxCell>
        <mxCell id="sqhxOelxg33xezJtGO6u-15" value="" style="endArrow=none;html=1;rounded=0;exitX=0.5;exitY=0;exitDx=0;exitDy=0;" edge="1" parent="1" source="sqhxOelxg33xezJtGO6u-11" target="sqhxOelxg33xezJtGO6u-4">
          <mxGeometry width="50" height="50" relative="1" as="geometry">
            <mxPoint x="490" y="240" as="sourcePoint" />
            <mxPoint x="540" y="190" as="targetPoint" />
          </mxGeometry>
        </mxCell>
        <mxCell id="sqhxOelxg33xezJtGO6u-20" value="DMZ" style="text;html=1;align=center;verticalAlign=middle;whiteSpace=wrap;rounded=0;" vertex="1" parent="1">
          <mxGeometry x="350" y="10" width="60" height="30" as="geometry" />
        </mxCell>
        <mxCell id="sqhxOelxg33xezJtGO6u-21" value="Zone Interne" style="text;html=1;align=center;verticalAlign=middle;whiteSpace=wrap;rounded=0;" vertex="1" parent="1">
          <mxGeometry x="361" y="720" width="60" height="30" as="geometry" />
        </mxCell>
        <mxCell id="sqhxOelxg33xezJtGO6u-22" value="&lt;h1 style=&quot;margin-top: 0px;&quot;&gt;Commentaires&lt;/h1&gt;" style="text;html=1;whiteSpace=wrap;overflow=hidden;rounded=0;" vertex="1" parent="1">
          <mxGeometry x="110" y="800" width="580" height="220" as="geometry" />
        </mxCell>
      </root>
    </mxGraphModel>
  </diagram>
</mxfile>
